<svg width="25" height="25" viewBox="0 0 25 25" fill="none" xmlns="http://www.w3.org/2000/svg">
<path d="M12.5 0C5.59644 0 0 5.59644 0 12.5C0 19.4036 5.59644 25 12.5 25C19.4036 25 25 19.4036 25 12.5C25 5.59644 19.4036 0 12.5 0ZM16.7054 3.90467C17.0719 3.90756 17.4277 4.04273 17.6964 4.31152L19.7766 6.3909C20.3516 6.96592 20.3122 7.93473 19.6903 8.55813C19.0669 9.18156 18.0965 9.21863 17.5231 8.64521L15.4437 6.56583C14.8687 5.9924 14.9089 5.02048 15.5308 4.3986C15.8612 4.06738 16.2902 3.9014 16.7054 3.90467ZM13.2781 6.6521L17.4376 10.8109L10.6779 17.569L6.51833 13.4095L13.2781 6.6521ZM5.43867 14.1971L9.82617 18.5846L4.34002 19.6832L5.43867 14.1971Z" fill="#007AFF"/>
</svg>
