<svg width="18" height="20" viewBox="0 0 18 20" fill="none" xmlns="http://www.w3.org/2000/svg">
<path d="M9 20C9.68198 20 10.336 19.7366 10.8183 19.2678C11.3005 18.799 11.5714 18.1631 11.5714 17.5001H6.42857C6.42857 18.1631 6.69949 18.799 7.18173 19.2678C7.66396 19.7366 8.31801 20 9 20ZM10.2793 1.37477C10.2972 1.20097 10.2775 1.02545 10.2214 0.859513C10.1653 0.693581 10.074 0.540926 9.95346 0.411394C9.83292 0.281861 9.6858 0.178327 9.52157 0.107468C9.35735 0.0366098 9.17967 0 9 0C8.82033 0 8.64265 0.0366098 8.47843 0.107468C8.3142 0.178327 8.16708 0.281861 8.04654 0.411394C7.92601 0.540926 7.83474 0.693581 7.77861 0.859513C7.72249 1.02545 7.70277 1.20097 7.72071 1.37477C6.2675 1.66213 4.96108 2.42891 4.0227 3.54528C3.08431 4.66164 2.57162 6.05898 2.57143 7.50068C2.57143 8.87311 1.92857 15.0003 0 16.2502H18C16.0714 15.0003 15.4286 8.87311 15.4286 7.50068C15.4286 4.47585 13.2171 1.95099 10.2793 1.37477Z" fill="#0A66C2"/>
</svg>
